:version 1.10
:name ASF
:units
  mass 1
  length 1
  angle deg
:documentation
  ASF file generated by Kaydara
:root
  axis xyz
  order  tx ty tz rx ry rz
  position 0 0 0
  orientation 0 0 0
:bonedata
  begin
    id 1
    name RightUpLegDummy
    direction -0.718183 -0.695806 0.00816078
    length 4.904
    axis 0 0 0 xyz
  end
  begin
    id 2
    name RightUpLeg
    direction -0.0736652 -0.994202 0.0783343
    length 17.4976
    axis -2.72909 -3.00389 -4.00133 xyz
    dof rx ry rz
  end
  begin
    id 3
    name RightLeg
    direction -0.0389037 -0.994596 -0.0962598
    length 16.5821
    axis 3.95836 -18.5909 -4.46993 xyz
    dof rx ry rz
  end
  begin
    id 4
    name RightFoot
    direction -0.311643 -0.412678 0.855906
    length 3.77069
    axis -1.99483 -18.8351 -3.27644 xyz
    dof rx ry rz
  end
  begin
    id 5
    name RightToes
    direction -0.317852 0.0389852 0.947339
    length 3.85082
    axis -2.00228 -18.1713 -3.25211 xyz
    dof rx ry rz
  end
  begin
    id 6
    name SpineDummy
    direction 8.3039e-015 1 4.44677e-016
    length 4.6813
    axis 0 0 0 xyz
  end
  begin
    id 7
    name Spine
    direction -0.000262373 0.999988 0.00493267
    length 10.1015
    axis -0.00246081 0.00062579 0.0150362 xyz
    dof rx ry rz
  end
  begin
    id 8
    name Spine1
    direction 0 0 0
    length 0
    axis -0.00349562 0.000650293 0.0196666 xyz
    dof rx ry rz
  end
  begin
    id 9
    name HEadDummy
    direction -0.000343232 0.999999 0.00123745
    length 3.43865
    axis -0.00349562 0.000650293 0.0196666 xyz
  end
  begin
    id 10
    name HEad
    direction -0.0461221 0.980933 0.188796
    length 5.12695
    axis -0.00351404 -7.04812 0.0199272 xyz
    dof rx ry rz
  end
  begin
    id 11
    name LeftShoulder1Dummy
    direction 0.998904 -0.0399089 -0.0244534
    length 3.5433
    axis -0.00349562 0.000650293 0.0196666 xyz
  end
  begin
    id 12
    name LeftShoulder1
    direction 0.99951 1.64443e-005 0.0312999
    length 4.05031
    axis -0.00349562 0.000650293 0.0196666 xyz
    dof rx ry rz
  end
  begin
    id 13
    name LeftArm
    direction 0.984791 0.0515299 0.165927
    length 12.9126
    axis -64.823 -10.7743 5.20463 xyz
    dof rx ry rz
  end
  begin
    id 14
    name LeftForeArm
    direction 0.984968 0.0534808 0.16425
    length 10.8596
    axis -30.0462 -7.70601 1.87451 xyz
    dof rx ry rz
  end
  begin
    id 15
    name LeftHand
    direction 0.975871 0.0289682 0.216418
    length 6.62295
    axis -20.1348 -6.98077 1.86072 xyz
    dof rx ry rz
  end
  begin
    id 16
    name RightShoulderDummy
    direction -0.998877 -0.0405946 -0.0244307
    length 3.5433
    axis -0.00349562 0.000650293 0.0196666 xyz
  end
  begin
    id 17
    name RightShoulder
    direction -0.998933 -0.0249743 -0.0388558
    length 4.05031
    axis -0.0205316 -4.02113 1.41395 xyz
    dof rx ry rz
  end
  begin
    id 18
    name RightArm
    direction -0.997559 0.068664 0.0127103
    length 12.9638
    axis -67.3882 1.84188 -6.15987 xyz
    dof rx ry rz
  end
  begin
    id 19
    name RightForeArm
    direction -0.991508 0.0912848 0.0926241
    length 10.8312
    axis -22.1975 3.41087 -4.28711 xyz
    dof rx ry rz
  end
  begin
    id 20
    name RightHand
    direction -0.989262 0.0600788 0.133232
    length 6.57864
    axis -12.2911 2.17515 -4.39675 xyz
    dof rx ry rz
  end
  begin
    id 21
    name LeftUpLegDummy
    direction 0.718183 -0.695806 0.00816078
    length 4.904
    axis 0 0 0 xyz
  end
  begin
    id 22
    name LeftUpLeg
    direction 0.0831398 -0.99469 0.0606531
    length 17.4976
    axis -1.71016 2.29552 4.63832 xyz
    dof rx ry rz
  end
  begin
    id 23
    name LeftLeg
    direction 0.0498442 -0.991778 -0.117862
    length 16.5821
    axis 5.13757 15.5727 5.13348 xyz
    dof rx ry rz
  end
  begin
    id 24
    name LeftFoot
    direction 0.269026 -0.433896 0.85986
    length 3.77069
    axis -0.576502 15.6961 4.10267 xyz
    dof rx ry rz
  end
  begin
    id 25
    name LeftToes
    direction 0.277311 0.0251143 0.960452
    length 3.85048
    axis -0.576502 15.6961 4.10267 xyz
    dof rx ry rz
  end
:hierarchy
  begin
    root RightUpLegDummy SpineDummy LeftUpLegDummy
    RightUpLegDummy RightUpLeg
    RightUpLeg RightLeg
    RightLeg RightFoot
    RightFoot RightToes
    SpineDummy Spine
    Spine Spine1
    Spine1 HEadDummy LeftShoulder1Dummy RightShoulderDummy
    HEadDummy HEad
    LeftShoulder1Dummy LeftShoulder1
    LeftShoulder1 LeftArm
    LeftArm LeftForeArm
    LeftForeArm LeftHand
    RightShoulderDummy RightShoulder
    RightShoulder RightArm
    RightArm RightForeArm
    RightForeArm RightHand
    LeftUpLegDummy LeftUpLeg
    LeftUpLeg LeftLeg
    LeftLeg LeftFoot
    LeftFoot LeftToes
  end

:SAMPLES-PER-SECOND 30
:FULLY-SPECIFIED
:DEGREES
91
root  -1.15091 18.0915 -66.8189 41.7895 15.75 -3.60313
RightUpLeg  -64.4491 -10.3467 31.0658
RightLeg  123.166 31.595 -21.1229
RightFoot  -43.1077 4.75195 17.1204
RightToes  5.82077e-011 -3.18055e-015 -2.98177e-016
Spine  33.6332 -3.51285 8.34074
Spine1  10.7067 -1.66721 4.75106
HEad  -18.408 -2.79239 6.83827
LeftShoulder1  -3.88251e-019 9.70628e-020 -3.87848e-018
LeftArm  -9.96292 -3.66106 -63.6983
LeftForeArm  22.7827 -2.25105 -6.01724
LeftHand  -13.095 -10.697 80.8789
RightShoulder  4.29016 9.09179 20.5974
RightArm  7.52994 23.2628 70.9458
RightForeArm  5.5645 3.45288 -1.96029
RightHand  -10.8315 8.90465 -74.8638
LeftUpLeg  -45.2898 -4.79504 30.1811
LeftLeg  114.133 -11.8179 -3.04682
LeftFoot  -39.4198 -7.547 -31.0495
LeftToes  9.37148e-011 4.50685e-012 -4.11107e-011
92
root  -1.1876 18.0896 -66.7285 41.9633 15.625 -3.52866
RightUpLeg  -64.3789 -10.0926 30.8446
RightLeg  123.435 31.2832 -20.6042
RightFoot  -42.9476 4.5417 16.4422
RightToes  5.82077e-011 -3.18055e-015 -2.98177e-016
Spine  33.6162 -3.53019 8.22399
Spine1  10.5933 -1.71599 4.75682
HEad  -18.491 -2.45676 6.75349
LeftShoulder1  -3.88251e-019 9.70628e-020 -3.87848e-018
LeftArm  -10.1192 -3.54276 -63.58
LeftForeArm  22.6288 -1.78761 -6.05959
LeftHand  -13.0064 -10.6573 80.6362
RightShoulder  4.36425 9.21345 20.8251
RightArm  7.47048 22.5832 70.6204
RightForeArm  5.8966 4.53444 -2.15472
RightHand  -11.014 9.11682 -74.9809
LeftUpLeg  -45.1257 -4.75647 30.2569
LeftLeg  113.913 -11.5391 -3.69031
LeftFoot  -39.3882 -7.4439 -30.6755
LeftToes  9.37148e-011 4.50685e-012 -4.11107e-011
93
root  -1.20657 18.0881 -66.6615 42.1073 15.5168 -3.5326
RightUpLeg  -64.3076 -9.82807 30.6946
RightLeg  123.567 30.9989 -20.2037
RightFoot  -42.862 4.44514 16.1344
RightToes  5.82077e-011 -3.18055e-015 -2.98177e-016
Spine  34.1239 -3.78469 8.28646
Spine1  9.6233 -1.8191 4.4495
HEad  -18.2012 -2.08381 6.70649
LeftShoulder1  -3.88251e-019 9.70628e-020 -3.87848e-018
LeftArm  -10.1346 -2.79668 -63.0557
LeftForeArm  22.6057 -1.99097 -6.15679
LeftHand  -13.1203 -10.764 80.7457
RightShoulder  4.26464 9.23891 20.1872
RightArm  6.29537 20.7718 71.0736
RightForeArm  6.52702 5.71609 -3.12626
RightHand  -11.1376 9.28546 -74.9645
LeftUpLeg  -44.9856 -4.70828 30.3552
LeftLeg  113.734 -11.2984 -4.25531
LeftFoot  -39.293 -7.43488 -30.7503
LeftToes  9.37148e-011 4.50685e-012 -4.11107e-011
94
root  -1.20835 18.0928 -66.6238 42.1713 15.3321 -3.6812
RightUpLeg  -64.2286 -9.5067 30.6086
RightLeg  123.553 30.8356 -20.0275
RightFoot  -42.8089 4.42832 16.1025
RightToes  5.82077e-011 -3.18055e-015 -2.98177e-016
Spine  34.673 -4.01268 8.46696
Spine1  8.69666 -1.82298 4.04196
HEad  -17.8967 -1.80206 6.60435
LeftShoulder1  -3.88251e-019 9.70628e-020 -3.87848e-018
LeftArm  -10.0413 -2.04564 -62.645
LeftForeArm  22.5754 -2.33335 -6.16552
LeftHand  -13.2851 -10.8778 81.0487
RightShoulder  4.17995 9.25597 19.6531
RightArm  5.41137 19.5063 71.6354
RightForeArm  6.97706 6.2618 -3.78141
RightHand  -11.1367 9.29444 -74.9259
LeftUpLeg  -44.7794 -4.59099 30.4687
LeftLeg  113.608 -11.1387 -4.63795
LeftFoot  -39.2647 -7.46946 -30.9219
LeftToes  9.37148e-011 4.50685e-012 -4.11107e-011
95
root  -1.19588 18.1035 -66.6121 42.1533 15.1538 -3.80141
RightUpLeg  -64.1741 -9.36063 30.5402
RightLeg  123.457 30.8664 -20.1199
RightFoot  -42.7482 4.43714 16.1703
RightToes  5.82077e-011 -3.18055e-015 -2.98177e-016
Spine  34.8953 -4.10224 8.61901
Spine1  8.50019 -1.78038 3.82468
HEad  -17.8433 -1.63636 6.35499
LeftShoulder1  -3.88251e-019 9.70628e-020 -3.87848e-018
LeftArm  -10.044 -1.77083 -62.6227
LeftForeArm  22.3769 -2.44665 -6.00851
LeftHand  -13.3598 -10.8733 81.3857
RightShoulder  4.21128 9.29861 19.7669
RightArm  5.57821 19.6856 71.8125
RightForeArm  7.1598 5.93647 -3.62883
RightHand  -11.1659 9.30381 -75.0366
LeftUpLeg  -44.5698 -4.50342 30.4499
LeftLeg  113.502 -11.1349 -4.67223
LeftFoot  -39.2845 -7.5244 -31.1187
LeftToes  9.37148e-011 4.50685e-012 -4.11107e-011
96
root  -1.18278 18.1069 -66.6221 42.1716 15.0311 -3.73303
RightUpLeg  -64.2332 -9.43452 30.456
RightLeg  123.368 31.0372 -20.3679
RightFoot  -42.755 4.45727 16.2413
RightToes  5.82077e-011 -3.18055e-015 -2.98177e-016
Spine  34.9417 -4.10699 8.54384
Spine1  8.60658 -1.83433 3.92066
HEad  -17.7971 -1.56468 6.13271
LeftShoulder1  -3.88251e-019 9.70628e-020 -3.87848e-018
LeftArm  -10.247 -1.67623 -62.725
LeftForeArm  22.1851 -2.50473 -5.76186
LeftHand  -13.3824 -10.8411 81.5977
RightShoulder  4.24813 9.29419 19.9938
RightArm  6.00062 20.2978 71.9745
RightForeArm  7.3315 5.41003 -3.32634
RightHand  -11.265 9.40235 -75.16
LeftUpLeg  -44.5139 -4.4828 30.2466
LeftLeg  113.443 -11.2065 -4.52642
LeftFoot  -39.2596 -7.60456 -31.4688
LeftToes  9.37148e-011 4.50685e-012 -4.11107e-011
97
root  -1.17344 18.099 -66.652 42.228 14.91 -3.56352
RightUpLeg  -64.3939 -9.54034 30.3564
RightLeg  123.356 31.204 -20.5637
RightFoot  -42.841 4.45502 16.1831
RightToes  5.82077e-011 -3.18055e-015 -2.98177e-016
Spine  35.1277 -4.11088 8.28494
Spine1  8.41261 -1.96758 4.13114
HEad  -17.5331 -1.60454 6.10969
LeftShoulder1  -3.88251e-019 9.70628e-020 -3.87848e-018
LeftArm  -10.5109 -1.38401 -62.6972
LeftForeArm  22.2142 -2.71436 -5.5433
LeftHand  -13.4479 -10.9099 81.6295
RightShoulder  4.19703 9.20704 19.8387
RightArm  5.93526 20.3213 72.3659
RightForeArm  7.491 5.2644 -3.40865
RightHand  -11.2813 9.43387 -75.1228
LeftUpLeg  -44.5624 -4.52094 30.0022
LeftLeg  113.498 -11.1746 -4.58453
LeftFoot  -39.2747 -7.68013 -31.7526
LeftToes  9.37148e-011 4.50685e-012 -4.11107e-011
